<svg width="1024" height="1024" viewBox="0 0 1024 1024" fill="none" xmlns="http://www.w3.org/2000/svg">
<rect width="1024" height="1024" fill="#E5E5E5"/>
<rect width="1024" height="1024" fill="#282828"/>
<path d="M203.4 493.2L240.6 407.4H283.8L224.1 537.6V624H182.7V537.6L123 407.4H166.2L203.4 493.2ZM447.499 407.1V441.9H390.799V624H349.399V441.9H292.699V407.1H447.499Z" fill="#FF0000"/>
<path d="M518.198 589.2H545.798C557.598 589.2 567.298 587.2 574.898 583.2C582.498 579.2 588.398 573.8 592.598 567C596.998 560.2 599.998 552.4 601.598 543.6C603.398 534.6 604.298 525.3 604.298 515.7C604.298 506.1 603.398 496.9 601.598 488.1C599.998 479.1 596.998 471.2 592.598 464.4C588.398 457.6 582.498 452.2 574.898 448.2C567.298 444.2 557.598 442.2 545.798 442.2H518.198V589.2ZM476.798 407.4H548.498C562.898 407.4 575.998 409.5 587.798 413.7C599.598 417.7 609.798 424.1 618.398 432.9C626.998 441.7 633.698 452.9 638.498 466.5C643.298 480.1 645.698 496.5 645.698 515.7C645.698 534.9 643.298 551.3 638.498 564.9C633.698 578.5 626.998 589.7 618.398 598.5C609.798 607.3 599.598 613.8 587.798 618C575.998 622 562.898 624 548.498 624H476.798V407.4Z" fill="white"/>
<rect x="679" y="408" width="42" height="216" fill="white"/>
<rect x="838" y="408" width="42" height="216" fill="white"/>
<rect x="811.569" y="419" width="35" height="80" transform="rotate(45 811.569 419)" fill="#FF0000"/>
<rect x="723" y="443.698" width="35" height="80" transform="rotate(-45 723 443.698)" fill="#FF0000"/>
</svg>
